{
	"patcher" : 	{
		"fileversion" : 1,
		"appversion" : 		{
			"major" : 8,
			"minor" : 1,
			"revision" : 11,
			"architecture" : "x64",
			"modernui" : 1
		}
,
		"classnamespace" : "box",
		"rect" : [ 34.0, 9.0, 1724.0, 1130.0 ],
		"bglocked" : 0,
		"openinpresentation" : 0,
		"default_fontsize" : 12.0,
		"default_fontface" : 0,
		"default_fontname" : "Arial",
		"gridonopen" : 1,
		"gridsize" : [ 15.0, 15.0 ],
		"gridsnaponopen" : 1,
		"objectsnaponopen" : 1,
		"statusbarvisible" : 2,
		"toolbarvisible" : 1,
		"lefttoolbarpinned" : 0,
		"toptoolbarpinned" : 0,
		"righttoolbarpinned" : 0,
		"bottomtoolbarpinned" : 0,
		"toolbars_unpinned_last_save" : 0,
		"tallnewobj" : 0,
		"boxanimatetime" : 200,
		"enablehscroll" : 1,
		"enablevscroll" : 1,
		"devicewidth" : 0.0,
		"description" : "",
		"digest" : "",
		"tags" : "",
		"style" : "",
		"subpatcher_template" : "Default Nico",
		"assistshowspatchername" : 0,
		"boxes" : [ 			{
				"box" : 				{
					"id" : "obj-4",
					"linecount" : 6,
					"maxclass" : "message",
					"numinlets" : 2,
					"numoutlets" : 1,
					"outlettype" : [ "" ],
					"patching_rect" : [ 240.0, 506.5, 348.0, 89.0 ],
					"text" : "P P M M E E L D P C F P P P N H A A M F S R D F N G F L P S S N P Y S T S E S P S C V Y D T R M G T S Y N S G M V E D T Y N H Q Y E N P L P H Q H Q H Q H I S R S R V Y A D P S V H L R S P N E H L V G G M A H R A M D A D N H V M H H V G M A P S H H S A P D K V K E Q G K V H F P W M K T T K S H A H Q W K A N W S G A N F Q T F S E N K"
				}

			}
, 			{
				"box" : 				{
					"id" : "obj-7",
					"maxclass" : "message",
					"numinlets" : 2,
					"numoutlets" : 1,
					"outlettype" : [ "" ],
					"patching_rect" : [ 444.838657438755035, 724.700001943111602, 50.0, 22.0 ],
					"text" : "68"
				}

			}
, 			{
				"box" : 				{
					"id" : "obj-6",
					"maxclass" : "number",
					"numinlets" : 1,
					"numoutlets" : 2,
					"outlettype" : [ "", "bang" ],
					"parameter_enable" : 0,
					"patching_rect" : [ 192.0, 661.0, 50.0, 22.0 ]
				}

			}
, 			{
				"box" : 				{
					"fontname" : "Helvetica",
					"fontsize" : 11.0,
					"id" : "obj-1",
					"maxclass" : "message",
					"numinlets" : 2,
					"numoutlets" : 1,
					"outlettype" : [ "" ],
					"patching_rect" : [ 593.850724637508392, 183.0, 33.0, 19.0 ],
					"text" : "read"
				}

			}
, 			{
				"box" : 				{
					"id" : "obj-250",
					"maxclass" : "message",
					"numinlets" : 2,
					"numoutlets" : 1,
					"outlettype" : [ "" ],
					"patching_rect" : [ 240.0, 482.5, 344.0, 22.0 ],
					"text" : ">Capitella_tellata_XLox"
				}

			}
, 			{
				"box" : 				{
					"id" : "obj-210",
					"maxclass" : "message",
					"numinlets" : 2,
					"numoutlets" : 1,
					"outlettype" : [ "" ],
					"patching_rect" : [ 349.838657438755035, 791.0, 50.0, 22.0 ],
					"text" : "0"
				}

			}
, 			{
				"box" : 				{
					"id" : "obj-207",
					"maxclass" : "newobj",
					"numinlets" : 4,
					"numoutlets" : 5,
					"outlettype" : [ "int", "", "", "", "" ],
					"patching_rect" : [ 32.599998999999997, 444.985364000000004, 101.0, 22.0 ],
					"text" : "nr.proteinizzatore"
				}

			}
, 			{
				"box" : 				{
					"id" : "obj-146",
					"maxclass" : "message",
					"numinlets" : 2,
					"numoutlets" : 1,
					"outlettype" : [ "" ],
					"patching_rect" : [ 143.0, 22.0, 50.0, 22.0 ],
					"text" : "90"
				}

			}
, 			{
				"box" : 				{
					"id" : "obj-19",
					"maxclass" : "newobj",
					"numinlets" : 1,
					"numoutlets" : 1,
					"outlettype" : [ "" ],
					"patching_rect" : [ 207.212364842891475, 12.360000000000014, 83.0, 22.0 ],
					"text" : "loadmess 250"
				}

			}
, 			{
				"box" : 				{
					"fontsize" : 30.0,
					"id" : "obj-25",
					"maxclass" : "number",
					"numinlets" : 1,
					"numoutlets" : 2,
					"outlettype" : [ "", "bang" ],
					"parameter_enable" : 0,
					"patching_rect" : [ 206.212364842891475, 68.0, 216.0, 42.0 ]
				}

			}
, 			{
				"box" : 				{
					"id" : "obj-13",
					"maxclass" : "comment",
					"numinlets" : 1,
					"numoutlets" : 0,
					"patching_rect" : [ 274.614583333333371, 176.88647848367691, 150.0, 20.0 ],
					"text" : "go on"
				}

			}
, 			{
				"box" : 				{
					"id" : "obj-2",
					"maxclass" : "button",
					"numinlets" : 1,
					"numoutlets" : 1,
					"outlettype" : [ "bang" ],
					"parameter_enable" : 0,
					"patching_rect" : [ 230.98738956451416, 172.88647848367691, 24.0, 24.0 ]
				}

			}
, 			{
				"box" : 				{
					"id" : "obj-70",
					"maxclass" : "newobj",
					"numinlets" : 3,
					"numoutlets" : 3,
					"outlettype" : [ "bang", "bang", "" ],
					"patching_rect" : [ 47.300000011920929, 37.0, 80.0, 22.0 ],
					"text" : "select 32 249"
				}

			}
, 			{
				"box" : 				{
					"id" : "obj-69",
					"maxclass" : "newobj",
					"numinlets" : 0,
					"numoutlets" : 4,
					"outlettype" : [ "int", "int", "int", "int" ],
					"patching_rect" : [ 47.300000011920929, 0.7729252576828, 50.5, 22.0 ],
					"text" : "key"
				}

			}
, 			{
				"box" : 				{
					"id" : "obj-68",
					"maxclass" : "toggle",
					"numinlets" : 1,
					"numoutlets" : 1,
					"outlettype" : [ "int" ],
					"parameter_enable" : 0,
					"patching_rect" : [ 47.300000011920929, 62.0, 140.0, 140.0 ]
				}

			}
, 			{
				"box" : 				{
					"id" : "obj-57",
					"maxclass" : "newobj",
					"numinlets" : 4,
					"numoutlets" : 3,
					"outlettype" : [ "float", "float", "float" ],
					"patching_rect" : [ 82.450831681489944, 708.212197530269805, 125.0, 22.0 ],
					"text" : "makenote 60 127 500"
				}

			}
, 			{
				"box" : 				{
					"id" : "obj-52",
					"maxclass" : "newobj",
					"numinlets" : 3,
					"numoutlets" : 0,
					"patching_rect" : [ 82.450831681489944, 773.467907714843932, 130.0, 22.0 ],
					"text" : "noteout \"from Max 1\" 3"
				}

			}
, 			{
				"box" : 				{
					"fontname" : "Helvetica",
					"fontsize" : 11.0,
					"id" : "obj-5",
					"maxclass" : "message",
					"numinlets" : 2,
					"numoutlets" : 1,
					"outlettype" : [ "" ],
					"patching_rect" : [ 10.850724637508392, 183.0, 33.0, 19.0 ],
					"text" : "read"
				}

			}
, 			{
				"box" : 				{
					"angle" : 270.0,
					"background" : 1,
					"bgcolor" : [ 0.76078431372549, 0.647058823529412, 0.223529411764706, 0.39 ],
					"bordercolor" : [ 0.890196078431372, 0.909803921568627, 0.807843137254902, 1.0 ],
					"id" : "obj-58",
					"maxclass" : "panel",
					"mode" : 0,
					"numinlets" : 1,
					"numoutlets" : 0,
					"patching_rect" : [ 47.300000011920929, 641.700001943111602, 180.911419093608856, 265.92683482170105 ],
					"proportion" : 0.5,
					"prototypename" : "redZone"
				}

			}
, 			{
				"box" : 				{
					"angle" : 270.0,
					"background" : 1,
					"bgcolor" : [ 0.76078431372549, 0.223529411764706, 0.223529411764706, 0.39 ],
					"bordercolor" : [ 0.909803921568627, 0.807843137254902, 0.807843137254902, 1.0 ],
					"id" : "obj-240",
					"maxclass" : "panel",
					"mode" : 0,
					"numinlets" : 1,
					"numoutlets" : 0,
					"patching_rect" : [ 7373.158873786529512, 2277.0, 338.911419093608856, 285.719514012336731 ],
					"proportion" : 0.5,
					"prototypename" : "redZone"
				}

			}
, 			{
				"box" : 				{
					"angle" : 270.0,
					"background" : 1,
					"bgcolor" : [ 0.76078431372549, 0.223529411764706, 0.223529411764706, 0.39 ],
					"bordercolor" : [ 0.909803921568627, 0.807843137254902, 0.807843137254902, 1.0 ],
					"id" : "obj-241",
					"maxclass" : "panel",
					"mode" : 0,
					"numinlets" : 1,
					"numoutlets" : 0,
					"patching_rect" : [ 8466.995154082775116, 2859.859757006168365, 181.07097464799881, 405.200001943111602 ],
					"proportion" : 0.5,
					"prototypename" : "redZone"
				}

			}
, 			{
				"box" : 				{
					"angle" : 270.0,
					"background" : 1,
					"bgcolor" : [ 0.235294117647059, 0.76078431372549, 0.223529411764706, 0.39 ],
					"bordercolor" : [ 0.807843137254902, 0.909803921568627, 0.819607843137255, 1.0 ],
					"drag_window" : 1,
					"id" : "obj-242",
					"ignoreclick" : 0,
					"maxclass" : "panel",
					"mode" : 0,
					"numinlets" : 1,
					"numoutlets" : 0,
					"patching_rect" : [ 7003.800000011920929, 1660.985364496707916, 387.0, 193.0 ],
					"proportion" : 0.5,
					"prototypename" : "redZone"
				}

			}
, 			{
				"box" : 				{
					"angle" : 270.0,
					"background" : 1,
					"bgcolor" : [ 0.235294117647059, 0.76078431372549, 0.223529411764706, 0.39 ],
					"bordercolor" : [ 0.807843137254902, 0.909803921568627, 0.819607843137255, 1.0 ],
					"drag_window" : 1,
					"id" : "obj-243",
					"ignoreclick" : 0,
					"maxclass" : "panel",
					"mode" : 0,
					"numinlets" : 1,
					"numoutlets" : 0,
					"patching_rect" : [ 8514.0, 1614.88647848367691, 387.0, 193.0 ],
					"proportion" : 0.5,
					"prototypename" : "redZone"
				}

			}
, 			{
				"box" : 				{
					"angle" : 270.0,
					"background" : 1,
					"bgcolor" : [ 0.223529411764706, 0.713725490196078, 0.76078431372549, 0.39 ],
					"bordercolor" : [ 0.807843137254902, 0.882352941176471, 0.909803921568627, 1.0 ],
					"drag_window" : 1,
					"id" : "obj-244",
					"ignoreclick" : 0,
					"maxclass" : "panel",
					"mode" : 0,
					"numinlets" : 1,
					"numoutlets" : 0,
					"patching_rect" : [ 7023.833361029624939, 2392.204879105091095, 294.161782681941986, 350.870736038684981 ],
					"proportion" : 0.5,
					"prototypename" : "redZone"
				}

			}
, 			{
				"box" : 				{
					"angle" : 270.0,
					"background" : 1,
					"bgcolor" : [ 0.76078431372549, 0.647058823529412, 0.223529411764706, 0.39 ],
					"bordercolor" : [ 0.890196078431372, 0.909803921568627, 0.807843137254902, 1.0 ],
					"id" : "obj-245",
					"maxclass" : "panel",
					"mode" : 0,
					"numinlets" : 1,
					"numoutlets" : 0,
					"patching_rect" : [ 8453.995154082775116, 2181.06463611125946, 540.911419093608856, 570.92683482170105 ],
					"proportion" : 0.5,
					"prototypename" : "redZone"
				}

			}
, 			{
				"box" : 				{
					"angle" : 270.0,
					"background" : 1,
					"bgcolor" : [ 0.76078431372549, 0.223529411764706, 0.223529411764706, 0.39 ],
					"bordercolor" : [ 0.909803921568627, 0.807843137254902, 0.807843137254902, 1.0 ],
					"id" : "obj-246",
					"maxclass" : "panel",
					"mode" : 0,
					"numinlets" : 1,
					"numoutlets" : 0,
					"patching_rect" : [ 8470.614593704542131, 2840.340244936943236, 486.911419093608856, 433.719514012336731 ],
					"proportion" : 0.5,
					"prototypename" : "redZone"
				}

			}
, 			{
				"box" : 				{
					"angle" : 270.0,
					"background" : 1,
					"bgcolor" : [ 0.76078431372549, 0.647058823529412, 0.223529411764706, 0.39 ],
					"bordercolor" : [ 0.890196078431372, 0.909803921568627, 0.807843137254902, 1.0 ],
					"id" : "obj-247",
					"maxclass" : "panel",
					"mode" : 0,
					"numinlets" : 1,
					"numoutlets" : 0,
					"patching_rect" : [ 6989.461342573165894, 3358.700001943111602, 180.911419093608856, 265.92683482170105 ],
					"proportion" : 0.5,
					"prototypename" : "redZone"
				}

			}
, 			{
				"box" : 				{
					"angle" : 270.0,
					"background" : 1,
					"bgcolor" : [ 0.223529411764706, 0.713725490196078, 0.76078431372549, 0.39 ],
					"bordercolor" : [ 0.807843137254902, 0.882352941176471, 0.909803921568627, 1.0 ],
					"drag_window" : 1,
					"id" : "obj-248",
					"ignoreclick" : 0,
					"maxclass" : "panel",
					"mode" : 0,
					"numinlets" : 1,
					"numoutlets" : 0,
					"patching_rect" : [ 7172.772364854812622, 1944.67804229259491, 191.0, 224.0 ],
					"proportion" : 0.5,
					"prototypename" : "redZone"
				}

			}
 ],
		"lines" : [ 			{
				"patchline" : 				{
					"destination" : [ "obj-207", 2 ],
					"source" : [ "obj-1", 0 ]
				}

			}
, 			{
				"patchline" : 				{
					"destination" : [ "obj-25", 0 ],
					"source" : [ "obj-19", 0 ]
				}

			}
, 			{
				"patchline" : 				{
					"destination" : [ "obj-207", 3 ],
					"source" : [ "obj-2", 0 ]
				}

			}
, 			{
				"patchline" : 				{
					"destination" : [ "obj-250", 1 ],
					"source" : [ "obj-207", 3 ]
				}

			}
, 			{
				"patchline" : 				{
					"destination" : [ "obj-4", 1 ],
					"source" : [ "obj-207", 4 ]
				}

			}
, 			{
				"patchline" : 				{
					"destination" : [ "obj-57", 2 ],
					"source" : [ "obj-207", 2 ]
				}

			}
, 			{
				"patchline" : 				{
					"destination" : [ "obj-57", 1 ],
					"source" : [ "obj-207", 1 ]
				}

			}
, 			{
				"patchline" : 				{
					"destination" : [ "obj-57", 0 ],
					"source" : [ "obj-207", 0 ]
				}

			}
, 			{
				"patchline" : 				{
					"destination" : [ "obj-207", 1 ],
					"source" : [ "obj-25", 0 ]
				}

			}
, 			{
				"patchline" : 				{
					"destination" : [ "obj-207", 2 ],
					"source" : [ "obj-5", 0 ]
				}

			}
, 			{
				"patchline" : 				{
					"destination" : [ "obj-52", 1 ],
					"source" : [ "obj-57", 1 ]
				}

			}
, 			{
				"patchline" : 				{
					"destination" : [ "obj-52", 0 ],
					"order" : 1,
					"source" : [ "obj-57", 0 ]
				}

			}
, 			{
				"patchline" : 				{
					"destination" : [ "obj-7", 1 ],
					"order" : 0,
					"source" : [ "obj-57", 0 ]
				}

			}
, 			{
				"patchline" : 				{
					"destination" : [ "obj-57", 3 ],
					"source" : [ "obj-6", 0 ]
				}

			}
, 			{
				"patchline" : 				{
					"destination" : [ "obj-207", 0 ],
					"source" : [ "obj-68", 0 ]
				}

			}
, 			{
				"patchline" : 				{
					"destination" : [ "obj-146", 1 ],
					"order" : 0,
					"source" : [ "obj-69", 0 ]
				}

			}
, 			{
				"patchline" : 				{
					"destination" : [ "obj-70", 0 ],
					"source" : [ "obj-69", 3 ]
				}

			}
, 			{
				"patchline" : 				{
					"destination" : [ "obj-70", 0 ],
					"order" : 1,
					"source" : [ "obj-69", 0 ]
				}

			}
, 			{
				"patchline" : 				{
					"destination" : [ "obj-2", 0 ],
					"source" : [ "obj-70", 1 ]
				}

			}
, 			{
				"patchline" : 				{
					"destination" : [ "obj-68", 0 ],
					"source" : [ "obj-70", 0 ]
				}

			}
 ],
		"dependency_cache" : [ 			{
				"name" : "nr.proteinizzatore.maxpat",
				"bootpath" : "~/Desktop/Sound Design MA/Creative Coding for Sound/Assignment 1 - 0.5",
				"patcherrelativepath" : ".",
				"type" : "JSON",
				"implicit" : 1
			}
, 			{
				"name" : "nr.sliceText.maxpat",
				"bootpath" : "~/Desktop/Sound Design MA/Creative Coding for Sound/Assignment 1 - 0.5",
				"patcherrelativepath" : ".",
				"type" : "JSON",
				"implicit" : 1
			}
 ],
		"autosave" : 0,
		"bgcolor" : [ 0.027450980392157, 0.164705882352941, 0.070588235294118, 1.0 ],
		"editing_bgcolor" : [ 0.870588235294118, 0.870588235294118, 0.870588235294118, 1.0 ]
	}

}
